<svg width="388" height="216" viewBox="0 0 388 216" fill="none" xmlns="http://www.w3.org/2000/svg">
<path d="M78.5261 14.2552C78.7604 13.5 79.1042 13.0208 79.5521 12.8125L85.6354 10.1615C91.349 8.09896 99.0417 5.54167 104.885 3.89583L107.76 3.23438C107.276 3.42188 106.906 3.90625 106.667 4.69271C102.286 6.21354 96.4531 8.29687 92.1823 10.1042C88.0573 11.2448 82.5573 12.8177 78.5261 14.2552Z" fill="#FE7800"/>
<path d="M50.0364 32.0052C50.2135 31.4427 50.4479 31.0364 50.7552 30.7864L50.8541 30.7083C62.3541 22.125 62.5729 21.9583 69.0364 18.25L75.4166 14.8177C74.9844 15.0364 74.651 15.5104 74.4271 16.2396C70.4687 18.7604 65.2187 22.1666 61.4323 24.9427C57.9583 26.9687 53.3437 29.7187 50.0364 32.0052Z" fill="#FE7800"/>
<path d="M261.948 79.4739L262.068 79.5521L264.729 85.9739L261.948 79.4739Z" fill="#FE7800"/>
<path d="M253.292 64.3854C253.333 64.2448 253.401 64.1562 253.49 64.1198C255.755 67.9479 258.734 73.0729 260.771 77.0208L264.729 85.9739L260.615 77.2344C258.479 73.3437 255.604 68.1719 253.292 64.3854Z" fill="#FE7800"/>
<path d="M232.047 39.0208C232.146 38.6979 232.297 38.4948 232.5 38.4167C235.578 41.4792 239.651 45.5937 242.547 48.8281C245.151 52.25 248.599 56.8333 251.036 60.3802C250.932 60.4219 250.854 60.5208 250.802 60.6875C248.193 57.3489 244.677 52.9167 241.859 49.75C238.964 46.4844 235.083 42.151 232.047 39.0208Z" fill="#FE7800"/>
<path d="M205.865 19.7292C206.016 19.2448 206.24 18.9427 206.542 18.8281C210.255 21.0573 215.182 24.0625 218.755 26.5052C221.974 29.1302 226.234 32.6667 229.307 35.4531C229.094 35.5365 228.932 35.75 228.828 36.099C225.516 33.6146 221.068 30.3281 217.594 28.0677C214.115 25.5052 209.458 22.1198 205.865 19.7292Z" fill="#FE7800"/>
<path d="M176.078 7.0625C176.271 6.44271 176.557 6.05729 176.943 5.90625C181.104 7.23438 186.651 9.04167 190.729 10.6094C194.385 12.3698 199.245 14.75 202.792 16.7135C202.484 16.8385 202.245 17.151 202.089 17.6563C198.245 16.0833 193.099 14.026 189.161 12.7188C185.266 10.9531 180.062 8.625 176.078 7.0625Z" fill="#FE7800"/>
<mask id="mask0_1_200" style="mask-type:luminance" maskUnits="userSpaceOnUse" x="143" y="0" width="31" height="7">
<path d="M143.844 0H173.177V6.15104H143.844V0Z" fill="white"/>
</mask>
<g mask="url(#mask0_1_200)">
<path d="M144.031 1.56248C144.25 0.838521 144.589 0.395813 145.031 0.223938C149.349 0.567687 155.104 1.04685 159.396 1.65102L159.984 1.74477C163.854 2.55727 169.005 3.67185 172.813 4.72915C172.422 4.88019 172.125 5.27081 171.927 5.90623C167.729 5.30727 162.12 4.55727 157.885 4.24998C153.75 3.35935 148.214 2.20831 144.031 1.56248Z" fill="#FE7800"/>
</g>
<mask id="mask1_1_200" style="mask-type:luminance" maskUnits="userSpaceOnUse" x="110" y="0" width="32" height="5">
<path d="M110.51 0H141.177V4.81771H110.51V0Z" fill="white"/>
</mask>
<g mask="url(#mask1_1_200)">
<path d="M111.042 3.78646C111.286 3.00521 111.651 2.52604 112.13 2.33854L117.818 1.35938C121.125 1.01042 125.526 0.416667 128.844 0.197917L132.911 0L140.693 0.046875C140.24 0.21875 139.901 0.671875 139.677 1.40104C135.297 1.83333 129.458 2.46354 125.115 3.19792C120.891 3.27604 115.255 3.42188 111.042 3.78646Z" fill="#FE7800"/>
</g>
<path d="M27.4271 55.375C27.5312 55.0312 27.6614 54.7552 27.8229 54.5417C30.0208 51.8594 32.8646 48.2083 35.1771 45.6198C38.7448 41.9427 43.5677 37.0885 47.3594 33.6406C47.0781 33.8854 46.8541 34.276 46.6875 34.8125C43.4791 38.0781 39.2291 42.474 36.2239 45.9323C33.5104 48.6927 29.9271 52.4167 27.4271 55.375Z" fill="#FE7800"/>
<path d="M261.823 79.9062C261.812 79.8125 261.807 79.7292 261.807 79.6667L264.729 85.9739L261.823 79.9062Z" fill="#FE7800"/>
<path d="M243.599 53.349C243.536 52.7969 243.516 52.3385 243.526 51.9688C246.219 55.2135 249.776 59.5781 252.255 62.9896C254.568 66.7604 257.62 71.8073 259.755 75.6771C259.75 75.7865 259.755 75.9219 259.776 76.0781C257.63 72.6406 254.729 68.0729 252.349 64.7917C249.776 61.3177 245.271 57.3333 243.599 53.349Z" fill="#FE7800"/>
<path d="M219.76 32.4114C219.651 31.4479 219.609 30.6458 219.635 30.0052C223.005 32.3541 227.469 35.526 230.677 38.0937C233.714 41.2291 237.75 45.4375 240.651 48.7083C240.635 49.1198 240.661 49.625 240.729 50.2344C237.839 47.7031 233.953 44.3594 230.88 42.0573C227.583 39.1198 221.865 36.2916 219.76 32.4114Z" fill="#FE7800"/>
<path d="M191.63 17.5937C191.484 16.2812 191.432 15.1823 191.464 14.3021C195.328 15.7031 200.469 17.6146 204.229 19.276C207.833 21.7031 212.625 24.9635 216.115 27.5469C216.083 28.2239 216.13 29.0677 216.245 30.0833C212.771 28.5052 208.115 26.4375 204.531 25.1406C200.698 22.8229 195.563 19.7552 191.63 17.5937Z" fill="#FE7800"/>
<path d="M160.562 9.40104C160.38 7.80208 160.318 6.47396 160.359 5.40625C164.542 5.8125 170.12 6.40104 174.26 7.09375C178.255 8.71354 183.573 10.9063 187.479 12.7188C187.443 13.6302 187.495 14.7604 187.651 16.1146C183.766 15.5313 178.568 14.8021 174.646 14.5208C170.448 12.9167 164.828 10.8125 160.562 9.40104Z" fill="#FE7800"/>
<path d="M127.88 8.31771C127.677 6.53125 127.604 5.04167 127.651 3.84896C131.974 3.21354 137.75 2.41146 142.104 2.07812C146.313 2.80208 151.922 3.80729 156.083 4.76563C156.036 5.85417 156.104 7.20833 156.292 8.83854C152.156 9.28125 146.641 9.92188 142.547 10.6719C138.161 9.88542 132.302 8.86979 127.88 8.31771Z" fill="#FE7800"/>
<path d="M94.9167 14.8594C94.7031 12.974 94.625 11.4115 94.6771 10.1511C98.9635 8.44272 104.703 6.20834 109.099 4.79168C113.339 4.52084 119.01 4.20834 123.26 4.21876C123.208 5.42709 123.286 6.9323 123.49 8.73959C119.281 10.2396 113.677 12.2917 109.573 14.0729C105.172 14.2083 99.3021 14.4375 94.9167 14.8594Z" fill="#FE7800"/>
<path d="M63.8333 29.0677C63.6198 27.2083 63.5416 25.6562 63.5989 24.4167C67.4583 21.7187 72.6458 18.1562 76.6771 15.7135C80.75 14.3802 86.1979 12.6458 90.3541 11.6094C90.3021 12.8698 90.3802 14.4375 90.5937 16.3229C86.5052 18.8802 81.0781 22.3333 77.1666 25.1406C73.1354 26.224 67.7708 27.7031 63.8333 29.0677Z" fill="#FE7800"/>
<path d="M38.1458 49.2396C37.9531 47.5104 37.8802 46.0677 37.9271 44.9114C41.0313 41.5 45.2031 36.9844 48.5 33.7708C51.849 31.5885 56.349 28.7239 59.8542 26.8073C59.8021 28.0417 59.8802 29.5833 60.0885 31.4323C56.6875 34.7708 52.1771 39.2552 48.9635 42.776C45.6667 44.625 41.2865 47.1302 38.1458 49.2396Z" fill="#FE7800"/>
<path d="M18.6094 74.0417C18.4375 72.5312 18.375 71.2812 18.4219 70.276C20.6875 66.3489 23.75 61.1354 26.2396 57.3437C28.7865 54.4792 32.2187 50.6875 34.974 48.026C34.9271 49.1667 35 50.5885 35.1875 52.2917C32.5573 56.1875 29.0833 61.401 26.6562 65.4219C24.1667 67.9323 20.875 71.3229 18.6094 74.0417Z" fill="#FE7800"/>
<path d="M5.76562 102.193C5.6302 100.995 5.58333 100 5.61458 99.1979C6.97916 94.9479 8.83854 89.2917 10.4375 85.1198C12.1198 81.724 14.401 77.2031 16.3229 73.9375C16.2812 74.9167 16.3437 76.1406 16.5104 77.6094C14.7187 81.8437 12.3646 87.5156 10.7812 91.8333C9.18749 94.8958 7.10416 99.0104 5.76562 102.193Z" fill="#FE7800"/>
<mask id="mask2_1_200" style="mask-type:luminance" maskUnits="userSpaceOnUse" x="0" y="102" width="6" height="31">
<path d="M0 102.151H5.17708V132.818H0V102.151Z" fill="white"/>
</mask>
<g mask="url(#mask2_1_200)">
<path d="M0.161455 132.443C0.0677057 131.62 0.031247 130.932 0.0572883 130.385L0.140622 128.948L0.723955 122.401L1.91146 114.125C2.63021 110.849 3.55208 106.464 4.44791 103.234C4.41666 104.005 4.46354 104.964 4.59375 106.115C3.70833 110.495 2.5625 116.349 1.89062 120.766C1.28125 124.255 0.515622 128.917 0.161455 132.443Z" fill="#FE7800"/>
</g>
<path d="M253.688 67.8646C253.672 67.7916 253.656 67.7187 253.635 67.6458C253.536 67.2031 253.458 66.8021 253.391 66.4427C255.646 69.776 258.615 74.2448 260.641 77.7239L264.729 85.9739L260.87 78.8541C258.771 75.526 255.292 71.4635 253.688 67.8646Z" fill="#FE7800"/>
<path d="M232.958 47.0156C232.922 46.8489 232.88 46.6823 232.844 46.5156C232.615 45.5 232.427 44.5781 232.281 43.7552C235.255 46.1146 239.182 49.3125 241.964 51.8958C244.703 55.2239 248.328 59.6823 250.927 63.1198C251 63.5416 251.094 64.0156 251.214 64.5364C251.234 64.625 251.25 64.7083 251.271 64.7969C248.859 62.3385 245.609 59.0781 242.99 56.8437C240.016 53.8594 235.062 50.6666 232.958 47.0156Z" fill="#FE7800"/>
<path d="M207.229 31.7031C207.172 31.4479 207.115 31.1979 207.063 30.9531C206.714 29.4271 206.437 28.0469 206.219 26.8177C209.724 28.1823 214.391 30.0521 217.771 31.6979C221.203 34.4948 225.76 38.2396 229.078 41.1666C229.234 42.0469 229.432 43.0312 229.682 44.1198C229.719 44.2969 229.76 44.4791 229.802 44.6562C226.76 43.1823 222.677 41.2552 219.51 40.0729C215.854 37.526 209.786 35.3541 207.229 31.7031Z" fill="#FE7800"/>
<path d="M177.823 22.3229C177.745 22 177.672 21.6823 177.604 21.3698C177.161 19.4219 176.807 17.6667 176.531 16.0938C180.401 16.4427 185.568 16.9635 189.401 17.6198C193.344 19.7917 198.594 22.7083 202.458 25.026C202.682 26.3073 202.974 27.7396 203.333 29.3229C203.391 29.5833 203.448 29.8437 203.51 30.1042C199.995 29.6406 195.292 29.0781 191.745 28.9271C187.589 26.8958 182.036 24.2188 177.823 22.3229Z" fill="#FE7800"/>
<path d="M146.052 19.2864C145.964 18.9114 145.88 18.5469 145.797 18.1771C145.286 15.9219 144.87 13.8802 144.552 12.0573C148.62 11.375 154.062 10.5208 158.177 10.151C162.464 11.5885 168.172 13.5364 172.391 15.1614C172.672 16.776 173.036 18.5729 173.49 20.5677C173.562 20.8906 173.635 21.2187 173.714 21.5469C169.88 22.1094 164.776 22.9062 161 23.7604C156.531 22.3594 150.568 20.526 146.052 19.2864Z" fill="#FE7800"/>
<path d="M113.24 23C113.141 22.599 113.052 22.1927 112.958 21.7969C112.406 19.3542 111.958 17.1406 111.609 15.1615C115.719 13.4479 121.224 11.2083 125.438 9.78125C129.88 10.3802 135.802 11.2187 140.208 12.0469C140.531 13.8958 140.953 15.9635 141.469 18.2552C141.552 18.6302 141.641 19.0052 141.729 19.3854C137.75 20.9635 132.453 23.1198 128.583 24.9531C123.99 24.2969 117.854 23.4531 113.24 23Z" fill="#FE7800"/>
<path d="M80.7604 33.8437C80.6614 33.4271 80.5677 33.0208 80.4791 32.6146C79.9114 30.1198 79.4531 27.8698 79.0989 25.8489C83.0677 23.1094 88.3906 19.4844 92.5208 16.9948C96.9271 16.6354 102.812 16.2083 107.234 16.1354C107.583 18.125 108.036 20.3489 108.594 22.8125C108.682 23.2135 108.776 23.6146 108.875 24.026C104.906 26.6042 99.6406 30.0885 95.8125 32.875C91.2916 33.0833 85.2604 33.3958 80.7604 33.8437Z" fill="#FE7800"/>
<path d="M52.1771 50.776C52.0885 50.3802 51.9948 49.9896 51.9114 49.6042C51.3698 47.2083 50.9323 45.0469 50.5885 43.1146C53.875 39.6302 58.2864 35.0156 61.7656 31.7188C65.7031 30.4479 70.9792 28.8021 75.0052 27.8125C75.3542 29.8229 75.8125 32.0729 76.375 34.5625C76.4687 34.9635 76.5625 35.375 76.6562 35.7865C73.0989 39.1979 68.3854 43.7708 65.0052 47.3542C61.1354 48.2969 55.9792 49.5833 52.1771 50.776Z" fill="#FE7800"/>
<path d="M29.349 72.2708C29.2708 71.9167 29.1875 71.5625 29.1094 71.2135C28.6198 69.0625 28.2292 67.1146 27.9219 65.375C30.4323 61.3802 33.8177 56.0729 36.5313 52.2083C39.6823 50.1979 43.9271 47.5573 47.2344 45.8073C47.5729 47.7239 48.0052 49.8594 48.5365 52.2292C48.625 52.6146 48.7135 53 48.8073 53.3906C45.9688 57.3385 42.2031 62.6146 39.5313 66.6771C36.4323 68.2708 32.3125 70.4271 29.349 72.2708Z" fill="#FE7800"/>
<path d="M12.8385 97.1563C12.7708 96.8594 12.7031 96.5677 12.6354 96.276C12.2291 94.4792 11.901 92.8542 11.6458 91.401C13.3229 87.099 15.5989 81.375 17.4791 77.1563C19.7708 74.5313 22.8698 71.0573 25.3802 68.6406C25.6823 70.349 26.0677 72.2604 26.5469 74.3698C26.625 74.7135 26.7031 75.0573 26.7864 75.4063C24.7135 79.6563 21.9791 85.3385 20.0781 89.6667C17.8281 91.8385 14.8646 94.776 12.8385 97.1563Z" fill="#FE7800"/>
<path d="M3.20831 124.26C3.15623 124.036 3.10936 123.818 3.05727 123.599C2.75519 122.255 2.5104 121.042 2.31769 119.958C3.09894 115.547 4.17186 109.672 5.15623 105.307C6.5156 102.193 8.37498 98.0573 9.99477 95.0729C10.2448 96.4792 10.5625 98.0521 10.9583 99.7969C11.0208 100.078 11.0885 100.365 11.1562 100.651C9.91144 104.995 8.27602 110.792 7.20831 115.182C5.91144 117.859 4.22915 121.464 3.20831 124.26Z" fill="#FE7800"/>
<mask id="mask3_1_200" style="mask-type:luminance" maskUnits="userSpaceOnUse" x="0" y="123" width="3" height="30">
<path d="M0 123.484H2.51042V152.818H0V123.484Z" fill="white"/>
</mask>
<g mask="url(#mask3_1_200)">
<path d="M1.02605 152.396C0.994803 152.266 0.963554 152.13 0.932303 152C0.750013 151.193 0.604177 150.464 0.484387 149.812C0.296887 145.495 0.078136 139.734 0.109387 135.411C0.479177 131.937 1.00522 127.307 1.63022 123.87C1.81251 124.901 2.04689 126.052 2.33335 127.328C2.38022 127.536 2.4323 127.745 2.47918 127.953C2.1198 132.193 1.66668 137.839 1.4948 142.089C1.26043 145.172 0.994803 149.302 1.02605 152.396Z" fill="#FE7800"/>
</g>
<path d="M262.182 81.4635C262.13 81.2708 262.078 81.0937 262.031 80.9219L264.729 85.974L262.182 81.4635Z" fill="#FE7800"/>
<path d="M245.667 62.1979C245.344 61.1094 245.057 60.0781 244.797 59.1094C247.281 61.4062 250.552 64.526 252.818 67.0365C255.062 70.2135 258.031 74.4635 260.12 77.7396C260.198 78.0208 260.281 78.3177 260.37 78.6354C258.521 76.2969 256.021 73.1927 253.943 71.0573C251.495 68.3646 247.505 65.3385 245.667 62.1979Z" fill="#FE7800"/>
<path d="M223.359 47.8437C222.802 45.9427 222.297 44.1406 221.854 42.4479C224.911 43.7135 228.984 45.4531 231.911 47C234.984 49.8437 239.073 53.6458 242.052 56.5937C242.339 57.6614 242.656 58.8021 243.01 60.0052C240.474 58.6562 237.057 56.8958 234.38 55.8489C231.099 53.4167 225.745 51.1614 223.359 47.8437Z" fill="#FE7800"/>
<path d="M196.552 38.6667C195.786 36.0729 195.099 33.6146 194.49 31.3073C197.969 31.5417 202.615 31.9114 206.057 32.4583C209.797 34.875 214.776 38.1198 218.448 40.6458C218.911 42.4271 219.443 44.3229 220.031 46.3229C216.948 45.9792 212.818 45.5729 209.714 45.5417C205.781 43.4531 200.531 40.6771 196.552 38.6667Z" fill="#FE7800"/>
<path d="M166.526 34.9531C165.599 31.8073 164.766 28.8229 164.026 26.0208C167.776 25.2552 172.781 24.2708 176.578 23.7969C180.802 25.6875 186.427 28.2396 190.599 30.2604C191.229 32.6406 191.938 35.1823 192.724 37.8542C189.25 38.5104 184.62 39.4427 181.208 40.375C176.818 38.7083 170.953 36.5104 166.526 34.9531Z" fill="#FE7800"/>
<path d="M101.948 44.9896C100.859 41.2813 99.8698 37.7604 99 34.4583C102.849 31.75 108.005 28.1615 111.99 25.6562C116.625 26.1615 122.807 26.8646 127.417 27.5677C128.25 30.7396 129.198 34.1146 130.245 37.6771C126.458 40.224 121.438 43.651 117.781 46.375C113.036 45.8958 106.708 45.2813 101.948 44.9896Z" fill="#FE7800"/>
<path d="M70.7865 58.8698C69.7083 55.2031 68.7344 51.724 67.875 48.4583C71.3333 44.9323 75.9792 40.2604 79.6146 36.9115C84.1302 36.5469 90.1615 36.099 94.6875 35.9688C95.5625 39.276 96.5469 42.8021 97.6406 46.5156C93.9479 49.8958 89.0417 54.4271 85.5 57.9583C81.0781 58.1667 75.1875 58.4688 70.7865 58.8698Z" fill="#FE7800"/>
<path d="M44.6146 76.9583C43.6146 73.5521 42.7083 70.3125 41.9114 67.276C44.6666 63.2552 48.3802 57.9167 51.3073 54.0208C55.125 52.9427 60.2291 51.5417 64.1041 50.7031C64.9583 53.9479 65.9323 57.4063 67.0052 61.0521C63.9323 64.9375 59.8541 70.1354 56.9271 74.1302C53.2187 74.901 48.2708 75.9635 44.6146 76.9583Z" fill="#FE7800"/>
<path d="M24.2344 98.1458C23.3646 95.1823 22.5729 92.3646 21.8802 89.7239C23.8854 85.4323 26.5885 79.7187 28.7552 75.5052C31.75 73.7864 35.7708 71.5364 38.8958 70.0677C39.6823 73.0625 40.5781 76.2552 41.5625 79.6198C39.1875 83.7656 36.0364 89.3125 33.7969 93.5364C30.8906 94.8333 27.0208 96.6041 24.2344 98.1458Z" fill="#FE7800"/>
<path d="M10.2448 121.385C9.55207 119.026 8.92187 116.781 8.36978 114.677C9.55728 110.323 11.1719 104.516 12.526 100.208C14.5989 97.9479 17.4114 94.9583 19.6979 92.9114C20.3802 95.4896 21.1458 98.2396 22 101.135C20.3698 105.333 18.2083 110.937 16.7135 115.187C14.6979 116.969 12.0417 119.385 10.2448 121.385Z" fill="#FE7800"/>
<path d="M3.23958 145.635C2.76042 144.01 2.32813 142.469 1.95312 141.026C2.25521 136.807 2.69792 131.177 3.18229 126.974C4.26042 124.276 5.74479 120.687 7.09375 118.12C7.63021 120.141 8.23438 122.297 8.90104 124.568C8.06771 128.609 6.97396 134.005 6.28646 138.073C5.27083 140.297 3.96354 143.297 3.23958 145.635Z" fill="#FE7800"/>
<path d="M3.81771 169.854C3.58854 169.073 3.38021 168.333 3.19792 167.641C2.55208 163.755 1.72917 158.557 1.29688 154.646C1.3125 151.62 1.36979 147.578 1.66146 144.568C2.01563 145.917 2.42188 147.354 2.86979 148.875C2.88542 152.573 2.92708 157.505 3.13021 161.198C3.23958 163.802 3.44271 167.276 3.81771 169.854Z" fill="#FE7800"/>
<path d="M4.84375 174.469L4.25 172.255L3.96875 171.13C4.125 171.719 4.30208 172.344 4.49479 173.005L5.57813 177.021C5.35417 176.255 5.05729 175.24 4.84375 174.469Z" fill="#FE7800"/>
<path d="M255.688 74.6823C255.432 73.9219 255.193 73.1875 254.974 72.4792C256.917 74.651 259.469 77.5989 261.177 79.9583L264.729 85.9739L261.75 81.7187C259.969 79.5781 257.099 77.0885 255.688 74.6823Z" fill="#FE7800"/>
<path d="M237.547 62.6719C236.964 60.9219 236.417 59.2292 235.911 57.6042C238.484 58.7187 241.906 60.2604 244.333 61.6614C246.901 64.2031 250.318 67.6042 252.792 70.2344C253.052 71.0677 253.328 71.9375 253.63 72.8385C251.641 71.6927 248.953 70.2083 246.823 69.375C244.057 67.3385 239.599 65.4271 237.547 62.6719Z" fill="#FE7800"/>
<path d="M214.099 55.1406C213.229 52.5208 212.406 49.9844 211.651 47.5573C214.698 47.651 218.771 47.8229 221.786 48.2344C225.161 50.5364 229.651 53.6094 232.964 55.9896C233.505 57.7292 234.089 59.5417 234.714 61.4114C232.104 61.2656 228.609 61.1302 226 61.2969C222.437 59.4323 216.724 58.1823 214.099 55.1406Z" fill="#FE7800"/>
<path d="M186.578 52.2083C185.464 48.8646 184.427 45.6354 183.458 42.5365C186.844 41.6615 191.375 40.5312 194.818 39.9375C198.818 41.9062 204.151 44.5417 208.109 46.5938C208.896 49.1198 209.75 51.7604 210.651 54.4844C207.583 55.3125 203.49 56.474 200.5 57.5573C196.333 55.9323 190.766 53.776 186.578 52.2083Z" fill="#FE7800"/>
<path d="M156.219 54C154.932 50.1146 153.719 46.3646 152.599 42.7656C156.193 40.9635 161 38.5885 164.698 37.0156C169.146 38.5573 175.073 40.625 179.49 42.2604C180.479 45.4375 181.547 48.7448 182.687 52.1719C179.302 53.9167 174.812 56.2865 171.542 58.2292C166.953 56.9323 160.828 55.2187 156.219 54Z" fill="#FE7800"/>
<path d="M124.26 60.6302C122.859 56.4219 121.547 52.3542 120.333 48.4531C124 45.776 128.917 42.2344 132.714 39.7344C137.417 40.7292 143.693 42.0781 148.37 43.2031C149.505 46.8542 150.734 50.6615 152.047 54.599C148.495 57.1823 143.781 60.6562 140.344 63.3906C135.526 62.5208 129.099 61.3854 124.26 60.6302Z" fill="#FE7800"/>
<path d="M91.9948 72.1979C90.5729 67.9062 89.2291 63.7604 87.9948 59.7864C91.5885 56.3073 96.401 51.6823 100.13 48.3489C104.901 48.6719 111.255 49.1302 116.01 49.6302C117.234 53.5521 118.557 57.6458 119.964 61.8802C116.37 65.2083 111.604 69.6719 108.12 73.1146C103.286 72.7916 96.8385 72.3802 91.9948 72.1979Z" fill="#FE7800"/>
<path d="M39.0469 105.365C37.8177 101.661 36.6615 98.0833 35.5938 94.6562C37.9115 90.4687 41.0208 84.8906 43.4688 80.776C47.1094 79.8698 51.9792 78.6979 55.6719 78.0052C56.8438 81.7812 58.1146 85.7135 59.4688 89.7812C56.8177 93.8229 53.2969 99.2291 50.7448 103.339C47.224 103.88 42.5312 104.62 39.0469 105.365Z" fill="#FE7800"/>
<path d="M20.9323 124.776C19.9063 121.687 18.9427 118.703 18.0469 115.839C19.6302 111.625 21.7656 106.021 23.4792 101.859C26.2656 100.422 30.0052 98.5573 32.9063 97.3646C33.9583 100.729 35.0885 104.234 36.2969 107.87C34.3073 111.901 31.6667 117.286 29.7708 121.365C27.0885 122.307 23.5208 123.594 20.9323 124.776Z" fill="#FE7800"/>
<path d="M9.25519 144.885C8.48956 142.578 7.7656 140.349 7.09894 138.214C7.8906 134.177 8.96352 128.807 9.8906 124.802C11.7083 122.911 14.1771 120.427 16.2031 118.76C17.0677 121.531 18 124.427 19 127.422C17.7187 131.245 16.0312 136.344 14.8541 140.198C13.1094 141.521 10.7969 143.328 9.25519 144.885Z" fill="#FE7800"/>
<path d="M4.66145 164.807C4.19791 163.422 3.76561 162.078 3.36457 160.792C3.28645 157.135 3.21874 152.25 3.31249 148.589C4.0677 146.339 5.12499 143.344 6.17707 141.219C6.81249 143.25 7.49478 145.37 8.22395 147.557C7.71353 150.984 7.04686 155.552 6.66665 158.995C5.95832 160.698 5.0677 163.01 4.66145 164.807Z" fill="#FE7800"/>
<path d="M6.98956 181.49C6.71873 180.651 6.35415 179.536 6.08852 178.698L5.87498 177.995L4.34373 172.193C3.98435 169.672 3.53123 166.297 3.44269 163.755C3.80727 164.922 4.1979 166.135 4.61977 167.396C4.92706 170.26 5.36456 174.083 5.86456 176.922C6.1979 178.292 6.55206 180.146 6.98956 181.49Z" fill="#FE7800"/>
<path d="M262.948 83.7552C262.859 83.5104 262.776 83.276 262.693 83.0417L264.729 85.9739L262.948 83.7552Z" fill="#FE7800"/>
<path d="M249.995 75.2239C249.495 73.8437 249.021 72.4948 248.562 71.1771C250.563 72.0781 253.224 73.3437 255.068 74.5469C256.943 76.5208 259.432 79.1614 261.208 81.2291C261.339 81.6094 261.479 82 261.625 82.3958C260.276 81.5208 258.437 80.375 256.932 79.8073C254.859 78.4166 251.552 77.1719 249.995 75.2239Z" fill="#FE7800"/>
<path d="M230.911 70.5521C230.042 68.1458 229.203 65.7865 228.411 63.4948C230.943 63.3906 234.333 63.3021 236.859 63.5208C239.677 65.4219 243.432 67.9583 246.208 69.9167C246.708 71.3698 247.24 72.8594 247.786 74.3854C245.729 74.4896 242.979 74.6979 240.958 75.099C237.948 73.7344 233.927 71.9063 230.911 70.5521Z" fill="#FE7800"/>
<path d="M206.865 69.6771C205.677 66.3958 204.531 63.1771 203.448 60.0416C206.401 59.0104 210.349 57.6666 213.38 56.8958C216.979 58.6458 221.776 60.9948 225.349 62.7916C226.188 65.2083 227.063 67.6875 227.979 70.2187C225.385 71.2812 221.938 72.7448 219.443 74.0208C215.672 72.7135 210.641 70.9739 206.865 69.6771Z" fill="#FE7800"/>
<path d="M148.578 79.1198C146.964 74.6562 145.417 70.2812 143.943 66.0208C147.375 63.3281 151.969 59.75 155.516 57.2083C160.135 58.4114 166.297 60.0312 170.896 61.3021C172.234 65.1771 173.646 69.1562 175.115 73.2135C171.865 75.901 167.547 79.5104 164.401 82.3125C159.656 81.3385 153.333 80.0469 148.578 79.1198Z" fill="#FE7800"/>
<path d="M85.3698 102.724C83.6875 98.0781 82.0729 93.526 80.5416 89.0938C83.7552 85.1979 88.0573 80.0104 91.3958 76.2188C96.2343 76.4479 102.693 76.776 107.526 77.1406C109.078 81.6302 110.708 86.2396 112.411 90.9479C109 94.7656 104.469 99.8698 101.151 103.771C96.4166 103.427 90.1041 102.984 85.3698 102.724Z" fill="#FE7800"/>
<path d="M58.1823 117.755C56.6198 113.432 55.1198 109.198 53.6927 105.073C56.3177 101 59.8333 95.5781 62.5625 91.5729C66.8021 91.375 72.4531 91.1458 76.6979 91.0989C78.2239 95.5 79.8281 100.026 81.4948 104.646C78.5833 108.599 74.7135 113.885 71.8802 117.896C67.7708 117.812 62.2916 117.714 58.1823 117.755Z" fill="#FE7800"/>
<path d="M36.0312 133.625C34.6719 129.865 33.3698 126.182 32.1302 122.599C34.1146 118.557 36.776 113.177 38.8489 109.182C42.3385 108.557 46.9948 107.766 50.5104 107.333C51.9166 111.396 53.3958 115.568 54.9375 119.828C52.5989 123.703 49.4844 128.875 47.2031 132.786C43.8489 132.984 39.375 133.266 36.0312 133.625Z" fill="#FE7800"/>
<path d="M9.6927 165.047C8.94791 162.99 8.23437 160.974 7.55728 159.016C8.0677 155.615 8.77082 151.083 9.39582 147.703C10.9896 146.297 13.1667 144.453 14.9427 143.281C15.8906 146.026 16.8906 148.844 17.9271 151.719C16.8906 154.87 15.5156 159.068 14.5417 162.234C13.0417 162.995 11.0364 164.036 9.6927 165.047Z" fill="#FE7800"/>
<path d="M6.91146 179.167C6.55729 178.182 6.21354 177.214 5.89063 176.271C5.55208 173.464 5.13021 169.708 4.96875 166.885C5.44271 165.198 6.11979 162.943 6.90104 161.375C7.53646 163.208 8.20313 165.089 8.89583 167.01C8.59375 169.542 8.19271 172.922 8.00521 175.469C7.56771 176.536 7.03646 178.016 6.91146 179.167Z" fill="#FE7800"/>
<path d="M7.98435 184.349C7.74998 183.682 7.43748 182.797 7.21352 182.135L6.25519 178.448C6.53123 179.25 6.8229 180.068 7.12498 180.906C7.46873 182.193 7.83852 183.937 8.29165 185.187L7.98435 184.349Z" fill="#FE7800"/>
<path d="M258.818 83.3385C258.474 82.4583 258.146 81.5885 257.823 80.7292C259.208 81.3489 261.052 82.25 262.26 83.1667L264.729 85.9739L263.052 85.2552C261.781 84.6823 259.771 84.3542 258.818 83.3385Z" fill="#FE7800"/>
<path d="M244.729 82.5521C243.948 80.5313 243.193 78.526 242.458 76.5573C244.422 76.1927 247.057 75.7396 249.057 75.6875C251.193 76.9583 254.036 78.6615 256.151 79.9688C256.526 80.9792 256.917 82.0104 257.318 83.0469C255.849 83.4844 253.896 84.1354 252.521 84.8177C250.177 84.151 247.057 83.2604 244.729 82.5521Z" fill="#FE7800"/>
<path d="M224.854 84.901C223.688 81.875 222.552 78.875 221.453 75.9219C223.917 74.6719 227.219 73.0156 229.781 71.9844C232.839 73.2708 236.911 74.9844 239.969 76.2708C240.75 78.3802 241.568 80.5208 242.401 82.6875C240.333 84.0573 237.599 85.9167 235.646 87.4427C232.406 86.6979 228.083 85.6927 224.854 84.901Z" fill="#FE7800"/>
<path d="M200.292 90.151C198.802 86.2917 197.354 82.4687 195.953 78.7083C198.807 76.6354 202.635 73.8906 205.604 71.9844C209.417 73.2187 214.495 74.8646 218.297 76.099C219.443 79.1719 220.625 82.2865 221.839 85.4375C219.307 87.6146 215.948 90.5469 213.516 92.8385C209.547 92.0469 204.255 90.9844 200.292 90.151Z" fill="#FE7800"/>
<path d="M172.151 98.0677C170.417 93.5833 168.734 89.1458 167.109 84.776C170.245 81.9791 174.448 78.2708 177.682 75.5989C182.068 76.7135 187.911 78.1979 192.292 79.3281C193.729 83.1823 195.214 87.0989 196.74 91.0521C193.849 93.9219 190.016 97.7656 187.208 100.714C182.693 99.9219 176.667 98.8698 172.151 98.0677Z" fill="#FE7800"/>
<path d="M109.594 120.891C107.682 115.937 105.823 111.031 104.026 106.203C107.38 102.333 111.865 97.1875 115.292 93.3802C120.26 93.9739 126.88 94.776 131.839 95.4479C133.609 100.214 135.448 105.052 137.333 109.943C134.042 113.755 129.661 118.849 126.411 122.693C121.365 122.141 114.641 121.411 109.594 120.891Z" fill="#FE7800"/>
<path d="M54.2291 147.37C52.5833 143.099 50.9791 138.87 49.4271 134.703C51.7604 130.823 54.8906 125.656 57.2812 121.807C61.3594 121.839 66.8021 121.906 70.8802 122.047C72.5885 126.63 74.3541 131.281 76.1666 135.984C73.5312 139.74 70.0208 144.745 67.4114 148.516C63.4583 148.146 58.1875 147.661 54.2291 147.37Z" fill="#FE7800"/>
<path d="M33.6042 159.839C32.2292 156.271 30.8906 152.74 29.5938 149.26C31.3281 145.677 33.6458 140.896 35.4219 137.333C38.7344 137.073 43.1563 136.76 46.474 136.651C48 140.734 49.5729 144.885 51.1927 149.078C49.0885 152.484 46.276 157.016 44.1771 160.422C41.0104 160.208 36.7813 159.937 33.6042 159.839Z" fill="#FE7800"/>
<path d="M18.7239 171.073C17.6927 168.411 16.6927 165.776 15.7239 163.177C16.7812 160.057 18.2031 155.901 19.3177 152.797C21.7239 152.234 24.9479 151.526 27.3958 151.156C28.6458 154.526 29.9479 157.953 31.2812 161.411C29.7656 164.292 27.7448 168.141 26.2239 171.021C23.9739 170.99 20.9687 170.958 18.7239 171.073Z" fill="#FE7800"/>
<path d="M10.3541 180.568C9.73436 178.964 9.1354 177.38 8.55206 175.813C8.85415 173.318 9.28123 169.995 9.68227 167.516C11.0364 166.656 12.8906 165.563 14.3698 164.943C15.2916 167.411 16.2396 169.917 17.2187 172.448C16.3541 174.661 15.2031 177.615 14.3541 179.833C13.1458 179.99 11.5208 180.198 10.3541 180.568Z" fill="#FE7800"/>
<path d="M9.16667 187.516L8.79167 186.531L8.46875 185.667C8.06771 184.214 7.50521 182.276 7.23438 180.792C7.40104 179.74 7.66146 178.307 8.14583 177.365C8.67188 178.776 9.21875 180.219 9.77604 181.667C9.61979 183.083 9.41146 184.969 9.35938 186.391C9.23958 186.714 9.07812 187.188 9.16667 187.516Z" fill="#FE7800"/>
<path d="M263.969 86.3958C263.859 86.1406 263.755 85.8802 263.656 85.6198L264.729 85.9739L263.969 86.3958Z" fill="#FE7800"/>
<path d="M255.807 90.2708C255.203 88.7917 254.609 87.3125 254.026 85.8437C255.328 85.1927 257.094 84.3333 258.495 83.9323C259.781 84.401 261.49 85.0312 262.786 85.4635C262.958 85.8906 263.125 86.3177 263.302 86.7448C262.521 87.5937 261.505 88.7552 260.812 89.6823C259.323 89.9271 257.318 90.2031 255.807 90.2708Z" fill="#FE7800"/>
<path d="M220.703 105.495C219.26 101.979 217.844 98.4635 216.458 94.9687C218.849 92.6719 222.047 89.6302 224.542 87.4427C227.786 88.1458 232.115 89.0677 235.375 89.7031C236.443 92.401 237.531 95.1094 238.646 97.8177C236.646 100.302 234.005 103.625 232.083 106.167C228.667 106.005 224.109 105.766 220.703 105.495Z" fill="#FE7800"/>
<path d="M195.813 115.984C194.063 111.719 192.349 107.453 190.667 103.214C193.438 100.266 197.141 96.3437 199.995 93.4739C203.974 94.2239 209.276 95.2239 213.26 95.9323C214.693 99.5416 216.151 103.167 217.641 106.797C215.193 109.896 211.938 114.047 209.552 117.193C205.427 116.859 199.927 116.401 195.813 115.984Z" fill="#FE7800"/>
<path d="M76.3854 164.865C74.4896 160.24 72.625 155.615 70.8073 151.016C73.4688 147.26 77.0261 142.26 79.7084 138.521C84.2917 139.01 90.4063 139.661 94.9844 140.182C96.9323 145.099 98.9219 150.042 100.948 154.984C98.0573 158.677 94.1979 163.604 91.3021 167.286C86.8281 166.563 80.8594 165.589 76.3854 164.865Z" fill="#FE7800"/>
<path d="M32.2396 182.245C30.9271 179.042 29.6354 175.839 28.375 172.656C29.9687 169.807 32.0938 166.005 33.6823 163.151C36.8438 163.365 41.0677 163.672 44.224 163.984C45.776 167.891 47.3542 171.818 48.9635 175.745C46.9844 178.406 44.3438 181.958 42.3125 184.578C39.2969 183.865 35.2708 182.911 32.2396 182.245Z" fill="#FE7800"/>
<path d="M18.3542 187.464C17.4531 185.26 16.5677 183.062 15.6979 180.875C16.651 178.698 17.9114 175.797 18.8594 173.62C21.1042 173.646 24.0937 173.714 26.3333 173.865C27.5469 176.922 28.7864 180.005 30.0469 183.083C28.6354 185.026 26.7448 187.609 25.2604 189.5C23.1927 188.875 20.4375 188.042 18.3542 187.464Z" fill="#FE7800"/>
<path d="M11.0729 189.927C10.6406 188.87 10.2135 187.812 9.79688 186.766C9.99479 185.385 10.2865 183.557 10.5573 182.193C11.7344 182.005 13.3177 181.813 14.5104 181.797C15.3177 183.844 16.1458 185.896 16.9896 187.953C16.2188 189.057 15.1875 190.531 14.3385 191.568C13.3542 191.078 11.8125 190.734 11.0729 189.927Z" fill="#FE7800"/>
<path d="M10.3489 190.474C9.82291 189.182 9.82291 189.182 9.5677 188.536L9.35416 187.995C9.39062 187.813 9.4427 187.573 9.48436 187.391L9.5677 187.344C9.92186 188.234 10.2812 189.13 10.6458 190.026C10.5781 190.198 10.5625 190.505 10.401 190.599L10.3489 190.474Z" fill="#FE7800"/>
<path d="M262.615 92.6198C262.234 91.7396 261.854 90.8489 261.479 89.9531C262.115 89 262.964 87.7187 263.687 86.8333L264.729 85.9739L264.594 88.9635C264.115 90.1146 263.401 91.651 262.615 92.6198Z" fill="#FE7800"/>
<path d="M253.453 103.854C252.578 101.828 251.708 99.7864 250.844 97.7344C252.151 95.9114 253.906 93.4844 255.297 91.7187C256.854 91.526 258.943 91.2552 260.458 90.8489C260.901 91.901 261.349 92.9479 261.797 93.9896C261.042 96.1041 260.031 98.9219 259.271 101.042C257.573 101.974 255.266 103.167 253.453 103.854Z" fill="#FE7800"/>
<path d="M237.917 116.797C236.604 113.766 235.302 110.708 234.01 107.635C235.891 105.068 238.401 101.651 240.354 99.1354C242.932 99.1302 246.375 99.1042 248.948 98.9375C249.865 101.135 250.797 103.318 251.74 105.484C250.333 108.313 248.464 112.078 247.083 114.917C244.349 115.552 240.687 116.359 237.917 116.797Z" fill="#FE7800"/>
<path d="M100.307 184.24C98.2448 179.484 96.2031 174.688 94.1823 169.87C97.1041 166.188 100.995 161.276 103.911 157.594C108.849 158.255 115.437 159.141 120.38 159.766C122.484 164.786 124.615 169.776 126.76 174.729C123.682 178.432 119.578 183.365 116.469 187.042C111.62 186.224 105.151 185.12 100.307 184.24Z" fill="#FE7800"/>
<path d="M72.6667 192.396C70.8125 188.12 68.974 183.802 67.1562 179.464C69.6823 176.25 73.0521 171.958 75.5417 168.719C79.9948 169.484 85.9323 170.51 90.3802 171.271C92.3802 176.042 94.4063 180.792 96.4479 185.5C93.6875 188.661 89.9948 192.87 87.1667 195.979C82.8177 194.917 77.0156 193.495 72.6667 192.396Z" fill="#FE7800"/>
<path d="M48.9948 197.417C47.4427 193.844 45.9115 190.24 44.3906 186.62C46.4583 184.016 49.1979 180.536 51.2135 177.891C55.0104 178.682 60.0781 179.745 63.8698 180.557C65.651 184.812 67.4583 189.052 69.2813 193.25C66.901 195.74 63.724 199.052 61.2656 201.464C57.5781 200.255 52.6719 198.641 48.9948 197.417Z" fill="#FE7800"/>
<path d="M30.2187 199.146C29.0625 196.479 27.9114 193.786 26.776 191.083C28.3073 189.224 30.3229 186.724 31.776 184.807C34.7708 185.562 38.7552 186.583 41.7396 187.375C43.2083 190.88 44.6979 194.375 46.2031 197.833C44.2917 199.547 41.7292 201.823 39.7083 203.406C36.8594 202.135 32.401 201.375 30.2187 199.146Z" fill="#FE7800"/>
<path d="M17.276 197.458C16.5729 195.849 15.8854 194.229 15.2031 192.604C16.1094 191.599 17.2865 190.229 18.1042 189.151C20.1406 189.833 22.849 190.75 24.875 191.458C25.9531 194.031 27.0469 196.589 28.1458 199.125C26.7813 199.969 24.9427 201.094 23.4688 201.729C21.5938 200.464 18.6875 199.219 17.276 197.458Z" fill="#FE7800"/>
<path d="M11.3229 192.771L11.1875 192.448C11.0052 192.021 10.7604 191.448 10.5781 191.021C10.75 190.943 10.9583 190.781 11.0625 190.625C11.9896 191.224 13.224 192.005 14.1667 192.573C14.7865 194.047 15.4115 195.51 16.0417 196.969C15.2604 196.896 14.1771 196.734 13.5 196.339C12.8177 195.286 11.8438 193.911 11.3229 192.771Z" fill="#FE7800"/>
<path d="M265.115 89.0469C265.005 88.8021 264.891 88.5521 264.781 88.3021L264.729 85.9739L265.115 89.0469Z" fill="#FE7800"/>
<path d="M262.344 105.323C261.708 103.943 261.068 102.531 260.432 101.104C261.089 98.9375 261.969 96.0573 262.609 93.8906C263.323 92.7448 264.24 91.1667 264.635 89.875C264.823 90.2865 265.005 90.6927 265.187 91.0938C265.203 93.5781 265.187 96.8958 265.094 99.375C264.38 101.208 263.37 103.646 262.344 105.323Z" fill="#FE7800"/>
<mask id="mask4_1_200" style="mask-type:luminance" maskUnits="userSpaceOnUse" x="25" y="200" width="19" height="16">
<path d="M25.1771 200.818H43.8437V216H25.1771V200.818Z" fill="white"/>
</mask>
<g mask="url(#mask4_1_200)">
<path d="M28.0937 209.896C27.1458 207.839 26.1927 205.74 25.2448 203.609C26.7708 202.938 28.7917 201.99 30.2135 201.115C33.0521 202.495 36.8333 204.323 39.6823 205.667C41.0104 208.646 42.3385 211.583 43.6719 214.469C41.7239 215.099 39.1042 215.917 37.0833 216.271C34.3646 214.385 30.1823 212.458 28.0937 209.896Z" fill="#FE7800"/>
</g>
<path d="M15.7448 200.693C15.2917 199.703 14.8333 198.698 14.375 197.672C15.2031 198.016 16.3698 198.422 17.2604 198.427C19.0938 199.839 21.5469 201.698 23.4271 203.042C24.3125 205.031 25.2031 206.995 26.0885 208.917C24.625 208.568 22.6667 208.042 21.3177 207.375C19.6042 205.406 17.0938 202.927 15.7448 200.693Z" fill="#FE7800"/>
<path d="M12.1302 194.578C11.9531 194.193 11.7239 193.677 11.5521 193.286C12.1146 194.286 12.8073 195.651 13.4479 196.594C13.8385 197.464 14.2239 198.318 14.6094 199.156L12.8854 196.234C12.6562 195.74 12.3489 195.078 12.1302 194.578Z" fill="#FE7800"/>
<mask id="mask5_1_200" style="mask-type:luminance" maskUnits="userSpaceOnUse" x="263" y="84" width="4" height="19">
<path d="M263.844 84.8177H267V102.151H263.844V84.8177Z" fill="white"/>
</mask>
<g mask="url(#mask5_1_200)">
<path d="M266.594 101.234C266.234 100.521 265.865 99.7604 265.484 98.9531L265.474 98.9323C265.458 96.3906 265.422 93.0052 265.281 90.4687L264.729 85.9739L266.167 92.3073C266.401 94.9791 266.677 98.5573 266.594 101.234Z" fill="#FE7800"/>
</g>
<path d="M266.193 91.2083C266.104 91.0469 266.01 90.8698 265.911 90.6771L264.729 85.9739L266.193 91.2083Z" fill="#FE7800"/>
<mask id="mask6_1_200" style="mask-type:luminance" maskUnits="userSpaceOnUse" x="263" y="84" width="4" height="9">
<path d="M263.844 84.8177H267V92.8177H263.844V84.8177Z" fill="white"/>
</mask>
<g mask="url(#mask6_1_200)">
<path d="M266.943 92.401C266.891 92.3385 266.828 92.2552 266.766 92.1614L264.729 85.9739L266.943 92.401Z" fill="#FE7800"/>
</g>
<path d="M157.36 189.582C158.928 189.582 160.303 189.863 161.485 190.416C162.678 190.973 163.673 191.728 164.464 192.686C165.256 193.634 165.844 194.686 166.235 195.853C166.636 197.02 166.839 198.218 166.839 199.436C166.839 200.645 166.636 201.822 166.235 202.957C165.844 204.098 165.256 205.134 164.464 206.061C163.673 206.978 162.678 207.707 161.485 208.249C160.303 208.791 158.928 209.061 157.36 209.061H150.423V189.582H157.36ZM157.36 206.27C158.844 206.27 160.089 205.947 161.089 205.291C162.089 204.624 162.839 203.77 163.339 202.728C163.839 201.676 164.089 200.577 164.089 199.436C164.089 198.561 163.943 197.718 163.652 196.895C163.371 196.061 162.949 195.306 162.381 194.624C161.824 193.931 161.121 193.384 160.277 192.978C159.443 192.561 158.469 192.353 157.36 192.353H153.214V206.27H157.36Z" fill="white"/>
<path d="M197.029 192.145V206.457H200.613V209.061H190.654V206.457H194.238V192.145H190.654V189.582H200.613V192.145H197.029Z" fill="white"/>
<path d="M240.37 196.52C240.12 195.468 239.646 194.634 238.953 194.02C238.271 193.395 237.495 192.952 236.62 192.686C235.745 192.41 234.88 192.27 234.037 192.27C232.745 192.27 231.584 192.582 230.558 193.207C229.526 193.822 228.709 194.666 228.099 195.749C227.485 196.822 227.183 198.051 227.183 199.436C227.183 200.811 227.485 202.051 228.099 203.145C228.709 204.244 229.526 205.103 230.558 205.728C231.584 206.353 232.745 206.666 234.037 206.666C234.839 206.666 235.641 206.515 236.433 206.207C237.235 205.905 237.974 205.447 238.641 204.832C239.308 204.207 239.834 203.416 240.224 202.457H232.933V199.624H243.558C243.485 200.447 243.412 201.14 243.328 201.707C243.255 202.265 243.146 202.707 242.995 203.041V203.02C242.563 204.27 241.86 205.374 240.891 206.332C239.917 207.291 238.828 208.041 237.62 208.582C236.422 209.124 235.229 209.395 234.037 209.395C232.646 209.395 231.36 209.15 230.183 208.666C229.016 208.181 227.995 207.494 227.12 206.603C226.245 205.702 225.563 204.645 225.078 203.436C224.589 202.218 224.349 200.884 224.349 199.436C224.349 197.978 224.589 196.64 225.078 195.416C225.578 194.197 226.266 193.14 227.141 192.249C228.026 191.348 229.058 190.655 230.224 190.166C231.401 189.681 232.672 189.436 234.037 189.436C234.964 189.436 235.922 189.561 236.912 189.811C237.912 190.061 238.854 190.468 239.745 191.02C240.63 191.561 241.401 192.291 242.058 193.207C242.709 194.113 243.162 195.218 243.412 196.52H240.37Z" fill="white"/>
<path d="M273.986 192.145V206.457H277.57V209.061H267.611V206.457H271.195V192.145H267.611V189.582H277.57V192.145H273.986Z" fill="white"/>
<path d="M306.16 192.186H300.306V189.541H314.765V192.186H308.952V209.061H306.16V192.186Z" fill="white"/>
<path d="M339.952 204.166L338.077 209.061H335.077L342.827 189.499H344.868L352.618 209.061H349.639L347.806 204.166H339.952ZM346.764 201.561L343.868 193.936L340.972 201.561H346.764Z" fill="white"/>
<path d="M387.15 206.27V209.061H375.275V189.749H378.067V206.27H387.15Z" fill="white"/>
<path d="M148.204 134.887H171.746V143.324H156.996V148.324H171.434V156.783H156.996V162.512H171.788V170.929H148.204V134.887Z" fill="white"/>
<path d="M189.563 134.887C192.282 134.887 194.553 135.47 196.376 136.637C198.193 137.793 199.563 139.277 200.48 141.095C201.397 142.918 201.855 144.814 201.855 146.783C201.855 148.965 201.277 151.095 200.126 153.179C198.97 155.251 197.22 156.845 194.876 157.97L202.522 169.304V170.929H193.23L185.792 158.824H184.355V170.929H175.667V134.887H189.563ZM189.355 150.929C190.647 150.929 191.631 150.527 192.313 149.72C192.99 148.918 193.334 148.054 193.334 147.137C193.334 146.194 193.001 145.314 192.334 144.491C191.678 143.673 190.688 143.262 189.355 143.262H184.355V150.929H189.355Z" fill="white"/>
<path d="M205.683 134.887H229.225V143.324H214.475V148.324H228.912V156.783H214.475V162.512H229.266V170.929H205.683V134.887Z" fill="white"/>
<path d="M252.25 135.199H260.875V170.929H254.042L241.833 153.533V170.929H233.146V135.199H239.896L252.25 153.074V135.199Z" fill="white"/>
<path d="M277.268 134.783H283.476L298.33 170.929H288.497L286.497 165.679H274.289L272.309 170.929H262.976L277.268 134.783ZM280.414 149.179L277.768 156.741L277.455 157.554H283.393L283.184 156.949L280.414 149.179Z" fill="white"/>
<path d="M317.542 146.47C317.542 145.293 317.104 144.387 316.229 143.762C315.365 143.126 314.255 142.804 312.896 142.804C311.531 142.804 310.422 143.074 309.563 143.616C308.714 144.158 308.292 144.929 308.292 145.929C308.292 146.569 308.511 147.074 308.959 147.449C309.401 147.824 309.938 148.095 310.563 148.262C311.198 148.429 311.802 148.543 312.375 148.595C312.959 148.652 313.401 148.694 313.709 148.72C314.969 148.902 316.281 149.147 317.646 149.449C319.005 149.757 320.297 150.21 321.521 150.804C322.74 151.387 323.813 152.194 324.729 153.22C325.646 154.236 326.292 155.548 326.667 157.158C326.834 158.074 326.917 158.908 326.917 159.658C326.917 161.522 326.505 163.179 325.688 164.637C324.88 166.085 323.797 167.304 322.438 168.304C321.073 169.304 319.568 170.069 317.917 170.595C316.261 171.121 314.589 171.387 312.896 171.387C311.422 171.387 309.896 171.147 308.313 170.679C306.729 170.194 305.24 169.449 303.854 168.449C302.464 167.449 301.334 166.152 300.459 164.554C299.594 162.96 299.167 161.012 299.167 158.72H307.979C307.979 159.887 308.25 160.777 308.792 161.387C309.344 162.001 310.011 162.408 310.792 162.616C311.584 162.814 312.297 162.908 312.938 162.908C314.365 162.908 315.584 162.694 316.584 162.262C317.594 161.819 318.104 161.085 318.104 160.054C318.104 159.418 317.886 158.918 317.459 158.554C317.026 158.194 316.505 157.929 315.896 157.762C315.281 157.595 314.677 157.481 314.084 157.408C313.485 157.34 313.021 157.283 312.688 157.241C311.255 157.116 309.792 156.902 308.292 156.595C306.792 156.293 305.401 155.798 304.125 155.116C302.86 154.439 301.797 153.46 300.938 152.179C300.089 150.902 299.584 149.241 299.417 147.199V147.241C299.276 144.632 299.818 142.387 301.042 140.512C302.261 138.637 303.927 137.199 306.042 136.199C308.151 135.199 310.485 134.699 313.042 134.699C314.636 134.699 316.219 134.929 317.792 135.387C319.36 135.845 320.792 136.554 322.084 137.512C323.375 138.46 324.401 139.679 325.167 141.179C325.927 142.668 326.313 144.429 326.313 146.47H317.542Z" fill="white"/>
<path d="M350.976 170.929H330.393V163.116H336.33V142.949H330.393V134.991H350.976V142.949H345.039V163.116H350.976V170.929Z" fill="white"/>
<path d="M366.599 134.783H372.808L387.662 170.929H377.828L375.828 165.679H363.62L361.641 170.929H352.308L366.599 134.783ZM369.745 149.179L367.099 156.741L366.787 157.554H372.724L372.516 156.949L369.745 149.179Z" fill="white"/>
</svg>
